<svg xmlns="http://www.w3.org/2000/svg" xmlns:xlink="http://www.w3.org/1999/xlink"
	style="margin: auto; display: block;"  preserveAspectRatio="xMidYMid">
	<g transform="translate(525,399.5) scale(1,1) translate(-525,-399.5)">
		<g transform="translate(-100 720.4560833544572) rotate(0)">
			<animateTransform attributeName="transform" type="translate" keyTimes="0;1"
				values="-100 720.4560833544572;1050 720.4560833544572" dur="66.66666666666667s"
				repeatCount="indefinite"
				begin="-37.73910133281924s"></animateTransform>
			<path
				d="M84.717,33.597c0.791-2.503,1.186-5.138,1.186-7.773C85.903,11.594,74.308,0,60.079,0 c-9.881,0-18.445,5.534-22.793,13.702c-1.581-0.527-3.426-0.791-5.138-0.791c-9.486,0-17.128,7.642-17.128,17.128 c0,1.186,0.132,2.372,0.395,3.426C6.719,34.783,0,42.424,0,51.515C0,61.66,8.169,69.829,18.314,69.829h63.373 C91.831,69.829,100,61.66,100,51.515C99.868,42.556,93.281,35.046,84.717,33.597z"
				fill="#1b75be" transform="scale(0.5)"></path>
		</g>
		<g transform="translate(-100 224.859814011256) rotate(0)">
			<animateTransform attributeName="transform" type="translate" keyTimes="0;1"
				values="-100 224.859814011256;1050 224.859814011256" dur="66.66666666666667s"
				repeatCount="indefinite"
				begin="-14.45951670412707s"></animateTransform>
			<path
				d="M84.717,33.597c0.791-2.503,1.186-5.138,1.186-7.773C85.903,11.594,74.308,0,60.079,0 c-9.881,0-18.445,5.534-22.793,13.702c-1.581-0.527-3.426-0.791-5.138-0.791c-9.486,0-17.128,7.642-17.128,17.128 c0,1.186,0.132,2.372,0.395,3.426C6.719,34.783,0,42.424,0,51.515C0,61.66,8.169,69.829,18.314,69.829h63.373 C91.831,69.829,100,61.66,100,51.515C99.868,42.556,93.281,35.046,84.717,33.597z"
				fill="#1b75be" transform="scale(0.5)"></path>
		</g>
		<g transform="translate(-100 188.58957707010856) rotate(0)">
			<animateTransform attributeName="transform" type="translate" keyTimes="0;1"
				values="-100 188.58957707010856;1050 188.58957707010856" dur="66.66666666666667s"
				repeatCount="indefinite"
				begin="-50.31878478070594s"></animateTransform>
			<path
				d="M84.717,33.597c0.791-2.503,1.186-5.138,1.186-7.773C85.903,11.594,74.308,0,60.079,0 c-9.881,0-18.445,5.534-22.793,13.702c-1.581-0.527-3.426-0.791-5.138-0.791c-9.486,0-17.128,7.642-17.128,17.128 c0,1.186,0.132,2.372,0.395,3.426C6.719,34.783,0,42.424,0,51.515C0,61.66,8.169,69.829,18.314,69.829h63.373 C91.831,69.829,100,61.66,100,51.515C99.868,42.556,93.281,35.046,84.717,33.597z"
				fill="#1b75be" transform="scale(0.5)"></path>
		</g>
		<g transform="translate(-100 750.01947689482) rotate(0)">
			<animateTransform attributeName="transform" type="translate" keyTimes="0;1"
				values="-100 750.01947689482;1050 750.01947689482" dur="66.66666666666667s"
				repeatCount="indefinite"
				begin="-2.30056216517139s"></animateTransform>
			<path
				d="M84.717,33.597c0.791-2.503,1.186-5.138,1.186-7.773C85.903,11.594,74.308,0,60.079,0 c-9.881,0-18.445,5.534-22.793,13.702c-1.581-0.527-3.426-0.791-5.138-0.791c-9.486,0-17.128,7.642-17.128,17.128 c0,1.186,0.132,2.372,0.395,3.426C6.719,34.783,0,42.424,0,51.515C0,61.66,8.169,69.829,18.314,69.829h63.373 C91.831,69.829,100,61.66,100,51.515C99.868,42.556,93.281,35.046,84.717,33.597z"
				fill="#1b75be" transform="scale(0.5)"></path>
		</g>
		<g transform="translate(-100 653.4614576927864) rotate(0)">
			<animateTransform attributeName="transform" type="translate" keyTimes="0;1"
				values="-100 653.4614576927864;1050 653.4614576927864" dur="66.66666666666667s"
				repeatCount="indefinite"
				begin="-61.5529604954095s"></animateTransform>
			<path
				d="M84.717,33.597c0.791-2.503,1.186-5.138,1.186-7.773C85.903,11.594,74.308,0,60.079,0 c-9.881,0-18.445,5.534-22.793,13.702c-1.581-0.527-3.426-0.791-5.138-0.791c-9.486,0-17.128,7.642-17.128,17.128 c0,1.186,0.132,2.372,0.395,3.426C6.719,34.783,0,42.424,0,51.515C0,61.66,8.169,69.829,18.314,69.829h63.373 C91.831,69.829,100,61.66,100,51.515C99.868,42.556,93.281,35.046,84.717,33.597z"
				fill="#1b75be" transform="scale(0.5)"></path>
		</g>
		<g transform="translate(-100 189.80262542701385) rotate(0)">
			<animateTransform attributeName="transform" type="translate" keyTimes="0;1"
				values="-100 189.80262542701385;1050 189.80262542701385" dur="66.66666666666667s"
				repeatCount="indefinite"
				begin="-3.1882817980768126s"></animateTransform>
			<path
				d="M84.717,33.597c0.791-2.503,1.186-5.138,1.186-7.773C85.903,11.594,74.308,0,60.079,0 c-9.881,0-18.445,5.534-22.793,13.702c-1.581-0.527-3.426-0.791-5.138-0.791c-9.486,0-17.128,7.642-17.128,17.128 c0,1.186,0.132,2.372,0.395,3.426C6.719,34.783,0,42.424,0,51.515C0,61.66,8.169,69.829,18.314,69.829h63.373 C91.831,69.829,100,61.66,100,51.515C99.868,42.556,93.281,35.046,84.717,33.597z"
				fill="#1b75be" transform="scale(0.5)"></path>
		</g>
		<g transform="translate(-100 657.2436777624031) rotate(0)">
			<animateTransform attributeName="transform" type="translate" keyTimes="0;1"
				values="-100 657.2436777624031;1050 657.2436777624031" dur="33.333333333333336s"
				repeatCount="indefinite"
				begin="-12.525618861894687s"></animateTransform>
			<path
				d="M84.717,33.597c0.791-2.503,1.186-5.138,1.186-7.773C85.903,11.594,74.308,0,60.079,0 c-9.881,0-18.445,5.534-22.793,13.702c-1.581-0.527-3.426-0.791-5.138-0.791c-9.486,0-17.128,7.642-17.128,17.128 c0,1.186,0.132,2.372,0.395,3.426C6.719,34.783,0,42.424,0,51.515C0,61.66,8.169,69.829,18.314,69.829h63.373 C91.831,69.829,100,61.66,100,51.515C99.868,42.556,93.281,35.046,84.717,33.597z"
				fill="#408ee0" transform="scale(1)"></path>
		</g>
		<g transform="translate(-100 522.4102644609081) rotate(0)">
			<animateTransform attributeName="transform" type="translate" keyTimes="0;1"
				values="-100 522.4102644609081;1050 522.4102644609081" dur="33.333333333333336s"
				repeatCount="indefinite"
				begin="-12.563788756470004s"></animateTransform>
			<path
				d="M84.717,33.597c0.791-2.503,1.186-5.138,1.186-7.773C85.903,11.594,74.308,0,60.079,0 c-9.881,0-18.445,5.534-22.793,13.702c-1.581-0.527-3.426-0.791-5.138-0.791c-9.486,0-17.128,7.642-17.128,17.128 c0,1.186,0.132,2.372,0.395,3.426C6.719,34.783,0,42.424,0,51.515C0,61.66,8.169,69.829,18.314,69.829h63.373 C91.831,69.829,100,61.66,100,51.515C99.868,42.556,93.281,35.046,84.717,33.597z"
				fill="#408ee0" transform="scale(1)"></path>
		</g>
		<g transform="translate(-100 428.9850505528287) rotate(0)">
			<animateTransform attributeName="transform" type="translate" keyTimes="0;1"
				values="-100 428.9850505528287;1050 428.9850505528287" dur="33.333333333333336s"
				repeatCount="indefinite"
				begin="-40.360047879688175s"></animateTransform>
			<path
				d="M84.717,33.597c0.791-2.503,1.186-5.138,1.186-7.773C85.903,11.594,74.308,0,60.079,0 c-9.881,0-18.445,5.534-22.793,13.702c-1.581-0.527-3.426-0.791-5.138-0.791c-9.486,0-17.128,7.642-17.128,17.128 c0,1.186,0.132,2.372,0.395,3.426C6.719,34.783,0,42.424,0,51.515C0,61.66,8.169,69.829,18.314,69.829h63.373 C91.831,69.829,100,61.66,100,51.515C99.868,42.556,93.281,35.046,84.717,33.597z"
				fill="#408ee0" transform="scale(1)"></path>
		</g>
		<g transform="translate(-100 527.9015306766353) rotate(0)">
			<animateTransform attributeName="transform" type="translate" keyTimes="0;1"
				values="-100 527.9015306766353;1050 527.9015306766353" dur="33.333333333333336s"
				repeatCount="indefinite"
				begin="-50.25615812148768s"></animateTransform>
			<path
				d="M84.717,33.597c0.791-2.503,1.186-5.138,1.186-7.773C85.903,11.594,74.308,0,60.079,0 c-9.881,0-18.445,5.534-22.793,13.702c-1.581-0.527-3.426-0.791-5.138-0.791c-9.486,0-17.128,7.642-17.128,17.128 c0,1.186,0.132,2.372,0.395,3.426C6.719,34.783,0,42.424,0,51.515C0,61.66,8.169,69.829,18.314,69.829h63.373 C91.831,69.829,100,61.66,100,51.515C99.868,42.556,93.281,35.046,84.717,33.597z"
				fill="#408ee0" transform="scale(1)"></path>
		</g>
		<g transform="translate(-100 288.95089121988207) rotate(0)">
			<animateTransform attributeName="transform" type="translate" keyTimes="0;1"
				values="-100 288.95089121988207;1050 288.95089121988207" dur="33.333333333333336s"
				repeatCount="indefinite"
				begin="-52.73407139041308s"></animateTransform>
			<path
				d="M84.717,33.597c0.791-2.503,1.186-5.138,1.186-7.773C85.903,11.594,74.308,0,60.079,0 c-9.881,0-18.445,5.534-22.793,13.702c-1.581-0.527-3.426-0.791-5.138-0.791c-9.486,0-17.128,7.642-17.128,17.128 c0,1.186,0.132,2.372,0.395,3.426C6.719,34.783,0,42.424,0,51.515C0,61.66,8.169,69.829,18.314,69.829h63.373 C91.831,69.829,100,61.66,100,51.515C99.868,42.556,93.281,35.046,84.717,33.597z"
				fill="#408ee0" transform="scale(1)"></path>
		</g>
		<g transform="translate(-100 462.53215543021645) rotate(0)">
			<animateTransform attributeName="transform" type="translate" keyTimes="0;1"
				values="-100 462.53215543021645;1050 462.53215543021645" dur="33.333333333333336s"
				repeatCount="indefinite"
				begin="-0.6361230165925565s"></animateTransform>
			<path
				d="M84.717,33.597c0.791-2.503,1.186-5.138,1.186-7.773C85.903,11.594,74.308,0,60.079,0 c-9.881,0-18.445,5.534-22.793,13.702c-1.581-0.527-3.426-0.791-5.138-0.791c-9.486,0-17.128,7.642-17.128,17.128 c0,1.186,0.132,2.372,0.395,3.426C6.719,34.783,0,42.424,0,51.515C0,61.66,8.169,69.829,18.314,69.829h63.373 C91.831,69.829,100,61.66,100,51.515C99.868,42.556,93.281,35.046,84.717,33.597z"
				fill="#408ee0" transform="scale(1)"></path>
		</g>
		<g transform="translate(-100 448.22840929985097) rotate(0)">
			<animateTransform attributeName="transform" type="translate" keyTimes="0;1"
				values="-100 448.22840929985097;1050 448.22840929985097" dur="33.333333333333336s"
				repeatCount="indefinite"
				begin="-21.59238786622717s"></animateTransform>
			<path
				d="M84.717,33.597c0.791-2.503,1.186-5.138,1.186-7.773C85.903,11.594,74.308,0,60.079,0 c-9.881,0-18.445,5.534-22.793,13.702c-1.581-0.527-3.426-0.791-5.138-0.791c-9.486,0-17.128,7.642-17.128,17.128 c0,1.186,0.132,2.372,0.395,3.426C6.719,34.783,0,42.424,0,51.515C0,61.66,8.169,69.829,18.314,69.829h63.373 C91.831,69.829,100,61.66,100,51.515C99.868,42.556,93.281,35.046,84.717,33.597z"
				fill="#408ee0" transform="scale(1)"></path>
		</g>
		<g transform="translate(-100 731.9953132368184) rotate(0)">
			<animateTransform attributeName="transform" type="translate" keyTimes="0;1"
				values="-100 731.9953132368184;1050 731.9953132368184" dur="22.222222222222225s"
				repeatCount="indefinite"
				begin="-38.05357005693776s"></animateTransform>
			<path
				d="M84.717,33.597c0.791-2.503,1.186-5.138,1.186-7.773C85.903,11.594,74.308,0,60.079,0 c-9.881,0-18.445,5.534-22.793,13.702c-1.581-0.527-3.426-0.791-5.138-0.791c-9.486,0-17.128,7.642-17.128,17.128 c0,1.186,0.132,2.372,0.395,3.426C6.719,34.783,0,42.424,0,51.515C0,61.66,8.169,69.829,18.314,69.829h63.373 C91.831,69.829,100,61.66,100,51.515C99.868,42.556,93.281,35.046,84.717,33.597z"
				fill="#89bff8" transform="scale(1.5)"></path>
		</g>
		<g transform="translate(-100 274.1062345252635) rotate(0)">
			<animateTransform attributeName="transform" type="translate" keyTimes="0;1"
				values="-100 274.1062345252635;1050 274.1062345252635" dur="22.222222222222225s"
				repeatCount="indefinite"
				begin="-31.934604400077035s"></animateTransform>
			<path
				d="M84.717,33.597c0.791-2.503,1.186-5.138,1.186-7.773C85.903,11.594,74.308,0,60.079,0 c-9.881,0-18.445,5.534-22.793,13.702c-1.581-0.527-3.426-0.791-5.138-0.791c-9.486,0-17.128,7.642-17.128,17.128 c0,1.186,0.132,2.372,0.395,3.426C6.719,34.783,0,42.424,0,51.515C0,61.66,8.169,69.829,18.314,69.829h63.373 C91.831,69.829,100,61.66,100,51.515C99.868,42.556,93.281,35.046,84.717,33.597z"
				fill="#89bff8" transform="scale(1.5)"></path>
		</g>
		<g transform="translate(-100 210.33183087703614) rotate(0)">
			<animateTransform attributeName="transform" type="translate" keyTimes="0;1"
				values="-100 210.33183087703614;1050 210.33183087703614" dur="22.222222222222225s"
				repeatCount="indefinite"
				begin="-61.421036822691924s"></animateTransform>
			<path
				d="M84.717,33.597c0.791-2.503,1.186-5.138,1.186-7.773C85.903,11.594,74.308,0,60.079,0 c-9.881,0-18.445,5.534-22.793,13.702c-1.581-0.527-3.426-0.791-5.138-0.791c-9.486,0-17.128,7.642-17.128,17.128 c0,1.186,0.132,2.372,0.395,3.426C6.719,34.783,0,42.424,0,51.515C0,61.66,8.169,69.829,18.314,69.829h63.373 C91.831,69.829,100,61.66,100,51.515C99.868,42.556,93.281,35.046,84.717,33.597z"
				fill="#89bff8" transform="scale(1.5)"></path>
		</g>
		<g transform="translate(-100 575.7119461695074) rotate(0)">
			<animateTransform attributeName="transform" type="translate" keyTimes="0;1"
				values="-100 575.7119461695074;1050 575.7119461695074" dur="22.222222222222225s"
				repeatCount="indefinite"
				begin="-18.63299997784455s"></animateTransform>
			<path
				d="M84.717,33.597c0.791-2.503,1.186-5.138,1.186-7.773C85.903,11.594,74.308,0,60.079,0 c-9.881,0-18.445,5.534-22.793,13.702c-1.581-0.527-3.426-0.791-5.138-0.791c-9.486,0-17.128,7.642-17.128,17.128 c0,1.186,0.132,2.372,0.395,3.426C6.719,34.783,0,42.424,0,51.515C0,61.66,8.169,69.829,18.314,69.829h63.373 C91.831,69.829,100,61.66,100,51.515C99.868,42.556,93.281,35.046,84.717,33.597z"
				fill="#89bff8" transform="scale(1.5)"></path>
		</g>
		<g transform="translate(-100 627.4981802901176) rotate(0)">
			<animateTransform attributeName="transform" type="translate" keyTimes="0;1"
				values="-100 627.4981802901176;1050 627.4981802901176" dur="22.222222222222225s"
				repeatCount="indefinite"
				begin="-27.81708119875443s"></animateTransform>
			<path
				d="M84.717,33.597c0.791-2.503,1.186-5.138,1.186-7.773C85.903,11.594,74.308,0,60.079,0 c-9.881,0-18.445,5.534-22.793,13.702c-1.581-0.527-3.426-0.791-5.138-0.791c-9.486,0-17.128,7.642-17.128,17.128 c0,1.186,0.132,2.372,0.395,3.426C6.719,34.783,0,42.424,0,51.515C0,61.66,8.169,69.829,18.314,69.829h63.373 C91.831,69.829,100,61.66,100,51.515C99.868,42.556,93.281,35.046,84.717,33.597z"
				fill="#89bff8" transform="scale(1.5)"></path>
		</g>
		<g transform="translate(-100 694.8483434616234) rotate(0)">
			<animateTransform attributeName="transform" type="translate" keyTimes="0;1"
				values="-100 694.8483434616234;1050 694.8483434616234" dur="22.222222222222225s"
				repeatCount="indefinite"
				begin="-23.08742378524647s"></animateTransform>
			<path
				d="M84.717,33.597c0.791-2.503,1.186-5.138,1.186-7.773C85.903,11.594,74.308,0,60.079,0 c-9.881,0-18.445,5.534-22.793,13.702c-1.581-0.527-3.426-0.791-5.138-0.791c-9.486,0-17.128,7.642-17.128,17.128 c0,1.186,0.132,2.372,0.395,3.426C6.719,34.783,0,42.424,0,51.515C0,61.66,8.169,69.829,18.314,69.829h63.373 C91.831,69.829,100,61.66,100,51.515C99.868,42.556,93.281,35.046,84.717,33.597z"
				fill="#89bff8" transform="scale(1.5)"></path>
		</g>
		<g transform="translate(-100 720.1435600285232) rotate(0)">
			<animateTransform attributeName="transform" type="translate" keyTimes="0;1"
				values="-100 720.1435600285232;1050 720.1435600285232" dur="16.666666666666668s"
				repeatCount="indefinite"
				begin="-5.024128845821182s"></animateTransform>
			<path
				d="M84.717,33.597c0.791-2.503,1.186-5.138,1.186-7.773C85.903,11.594,74.308,0,60.079,0 c-9.881,0-18.445,5.534-22.793,13.702c-1.581-0.527-3.426-0.791-5.138-0.791c-9.486,0-17.128,7.642-17.128,17.128 c0,1.186,0.132,2.372,0.395,3.426C6.719,34.783,0,42.424,0,51.515C0,61.66,8.169,69.829,18.314,69.829h63.373 C91.831,69.829,100,61.66,100,51.515C99.868,42.556,93.281,35.046,84.717,33.597z"
				fill="#e3fbff" transform="scale(2)"></path>
		</g>
		<g transform="translate(-100 224.0598627941718) rotate(0)">
			<animateTransform attributeName="transform" type="translate" keyTimes="0;1"
				values="-100 224.0598627941718;1050 224.0598627941718" dur="16.666666666666668s"
				repeatCount="indefinite"
				begin="-48.68869773757968s"></animateTransform>
			<path
				d="M84.717,33.597c0.791-2.503,1.186-5.138,1.186-7.773C85.903,11.594,74.308,0,60.079,0 c-9.881,0-18.445,5.534-22.793,13.702c-1.581-0.527-3.426-0.791-5.138-0.791c-9.486,0-17.128,7.642-17.128,17.128 c0,1.186,0.132,2.372,0.395,3.426C6.719,34.783,0,42.424,0,51.515C0,61.66,8.169,69.829,18.314,69.829h63.373 C91.831,69.829,100,61.66,100,51.515C99.868,42.556,93.281,35.046,84.717,33.597z"
				fill="#e3fbff" transform="scale(2)"></path>
		</g>
		<g transform="translate(-100 0.6734099294194227) rotate(0)">
			<animateTransform attributeName="transform" type="translate" keyTimes="0;1"
				values="-100 0.6734099294194227;1050 0.6734099294194227" dur="16.666666666666668s"
				repeatCount="indefinite"
				begin="-26.461884704627145s"></animateTransform>
			<path
				d="M84.717,33.597c0.791-2.503,1.186-5.138,1.186-7.773C85.903,11.594,74.308,0,60.079,0 c-9.881,0-18.445,5.534-22.793,13.702c-1.581-0.527-3.426-0.791-5.138-0.791c-9.486,0-17.128,7.642-17.128,17.128 c0,1.186,0.132,2.372,0.395,3.426C6.719,34.783,0,42.424,0,51.515C0,61.66,8.169,69.829,18.314,69.829h63.373 C91.831,69.829,100,61.66,100,51.515C99.868,42.556,93.281,35.046,84.717,33.597z"
				fill="#e3fbff" transform="scale(2)"></path>
		</g>
		<g transform="translate(-100 786.768674386131) rotate(0)">
			<animateTransform attributeName="transform" type="translate" keyTimes="0;1"
				values="-100 786.768674386131;1050 786.768674386131" dur="16.666666666666668s"
				repeatCount="indefinite"
				begin="-33.82351748401486s"></animateTransform>
			<path
				d="M84.717,33.597c0.791-2.503,1.186-5.138,1.186-7.773C85.903,11.594,74.308,0,60.079,0 c-9.881,0-18.445,5.534-22.793,13.702c-1.581-0.527-3.426-0.791-5.138-0.791c-9.486,0-17.128,7.642-17.128,17.128 c0,1.186,0.132,2.372,0.395,3.426C6.719,34.783,0,42.424,0,51.515C0,61.66,8.169,69.829,18.314,69.829h63.373 C91.831,69.829,100,61.66,100,51.515C99.868,42.556,93.281,35.046,84.717,33.597z"
				fill="#e3fbff" transform="scale(2)"></path>
		</g>
		<g transform="translate(-100 465.55867521196166) rotate(0)">
			<animateTransform attributeName="transform" type="translate" keyTimes="0;1"
				values="-100 465.55867521196166;1050 465.55867521196166" dur="16.666666666666668s"
				repeatCount="indefinite"
				begin="-22.306150541157077s"></animateTransform>
			<path
				d="M84.717,33.597c0.791-2.503,1.186-5.138,1.186-7.773C85.903,11.594,74.308,0,60.079,0 c-9.881,0-18.445,5.534-22.793,13.702c-1.581-0.527-3.426-0.791-5.138-0.791c-9.486,0-17.128,7.642-17.128,17.128 c0,1.186,0.132,2.372,0.395,3.426C6.719,34.783,0,42.424,0,51.515C0,61.66,8.169,69.829,18.314,69.829h63.373 C91.831,69.829,100,61.66,100,51.515C99.868,42.556,93.281,35.046,84.717,33.597z"
				fill="#e3fbff" transform="scale(2)"></path>
		</g>
		<g transform="translate(-100 378.5620192554084) rotate(0)">
			<animateTransform attributeName="transform" type="translate" keyTimes="0;1"
				values="-100 378.5620192554084;1050 378.5620192554084" dur="16.666666666666668s"
				repeatCount="indefinite"
				begin="-53.239096046493664s"></animateTransform>
			<path
				d="M84.717,33.597c0.791-2.503,1.186-5.138,1.186-7.773C85.903,11.594,74.308,0,60.079,0 c-9.881,0-18.445,5.534-22.793,13.702c-1.581-0.527-3.426-0.791-5.138-0.791c-9.486,0-17.128,7.642-17.128,17.128 c0,1.186,0.132,2.372,0.395,3.426C6.719,34.783,0,42.424,0,51.515C0,61.66,8.169,69.829,18.314,69.829h63.373 C91.831,69.829,100,61.66,100,51.515C99.868,42.556,93.281,35.046,84.717,33.597z"
				fill="#e3fbff" transform="scale(2)"></path>
		</g>
		<g transform="translate(-100 49.23528008410611) rotate(0)">
			<animateTransform attributeName="transform" type="translate" keyTimes="0;1"
				values="-100 49.23528008410611;1050 49.23528008410611" dur="16.666666666666668s"
				repeatCount="indefinite"
				begin="-24.041016589730887s"></animateTransform>
			<path
				d="M84.717,33.597c0.791-2.503,1.186-5.138,1.186-7.773C85.903,11.594,74.308,0,60.079,0 c-9.881,0-18.445,5.534-22.793,13.702c-1.581-0.527-3.426-0.791-5.138-0.791c-9.486,0-17.128,7.642-17.128,17.128 c0,1.186,0.132,2.372,0.395,3.426C6.719,34.783,0,42.424,0,51.515C0,61.66,8.169,69.829,18.314,69.829h63.373 C91.831,69.829,100,61.66,100,51.515C99.868,42.556,93.281,35.046,84.717,33.597z"
				fill="#e3fbff" transform="scale(2)"></path>
		</g>
	</g>
</svg>