<svg xmlns="http://www.w3.org/2000/svg" xmlns:xlink="http://www.w3.org/1999/xlink" style="margin: auto; background: rgb(241, 242, 243); display: block;" width="200px" height="200px" viewBox="0 0 100 100" preserveAspectRatio="xMidYMid">
<defs>
  <mask id="ldio-7x33svk7j2b-mask">
    <path d="M50 13L75 30L75 70L50 87L25 70L25 30L50 13Z" fill="#fff" stroke="#000" stroke-width="0"></path>
  </mask>
</defs>
<path d="M50 13L75 30L75 70L50 87L25 70L25 30L50 13Z" fill="#93dbe9" stroke="#3b4368" stroke-width="0"></path><path d="M50 13L75 30L75 70L50 87L58.3 70L58.3 30Z" mask="url(#ldio-7x33svk7j2b-mask)" fill="#93dbe9" stroke="#3b4368" stroke-width="0">
  <animate attributeName="d" dur="5s" repeatCount="indefinite" keyTimes="0;1" values="M50 13L90 30L90 70L50 87L75 70L75 30Z;M50 13L25 30L25 70L50 87L10 70L10 30Z" begin="-1s"></animate>
  <animate attributeName="fill" dur="5s" repeatCount="indefinite" keyTimes="0;0.5;1" values="#93dbe9;#689cc5;#5e6fa3" begin="-1s"></animate>
</path><path d="M50 13L75 30L75 70L50 87L58.3 70L58.3 30Z" mask="url(#ldio-7x33svk7j2b-mask)" fill="#93dbe9" stroke="#3b4368" stroke-width="0">
  <animate attributeName="d" dur="5s" repeatCount="indefinite" keyTimes="0;1" values="M50 13L90 30L90 70L50 87L75 70L75 30Z;M50 13L25 30L25 70L50 87L10 70L10 30Z" begin="-2s"></animate>
  <animate attributeName="fill" dur="5s" repeatCount="indefinite" keyTimes="0;0.5;1" values="#93dbe9;#689cc5;#5e6fa3" begin="-2s"></animate>
</path><path d="M50 13L75 30L75 70L50 87L58.3 70L58.3 30Z" mask="url(#ldio-7x33svk7j2b-mask)" fill="#93dbe9" stroke="#3b4368" stroke-width="0">
  <animate attributeName="d" dur="5s" repeatCount="indefinite" keyTimes="0;1" values="M50 13L90 30L90 70L50 87L75 70L75 30Z;M50 13L25 30L25 70L50 87L10 70L10 30Z" begin="-2.9999999999999996s"></animate>
  <animate attributeName="fill" dur="5s" repeatCount="indefinite" keyTimes="0;0.5;1" values="#93dbe9;#689cc5;#5e6fa3" begin="-2.9999999999999996s"></animate>
</path><path d="M50 13L75 30L75 70L50 87L58.3 70L58.3 30Z" mask="url(#ldio-7x33svk7j2b-mask)" fill="#93dbe9" stroke="#3b4368" stroke-width="0">
  <animate attributeName="d" dur="5s" repeatCount="indefinite" keyTimes="0;1" values="M50 13L90 30L90 70L50 87L75 70L75 30Z;M50 13L25 30L25 70L50 87L10 70L10 30Z" begin="-4s"></animate>
  <animate attributeName="fill" dur="5s" repeatCount="indefinite" keyTimes="0;0.5;1" values="#93dbe9;#689cc5;#5e6fa3" begin="-4s"></animate>
</path><path d="M50 13L75 30L75 70L50 87L58.3 70L58.3 30Z" mask="url(#ldio-7x33svk7j2b-mask)" fill="#93dbe9" stroke="#3b4368" stroke-width="0">
  <animate attributeName="d" dur="5s" repeatCount="indefinite" keyTimes="0;1" values="M50 13L90 30L90 70L50 87L75 70L75 30Z;M50 13L25 30L25 70L50 87L10 70L10 30Z" begin="-5s"></animate>
  <animate attributeName="fill" dur="5s" repeatCount="indefinite" keyTimes="0;0.5;1" values="#93dbe9;#689cc5;#5e6fa3" begin="-5s"></animate>
</path><path d="M25 30L75 30" fill="#93dbe9" stroke="#3b4368" stroke-width="0"></path>
<path d="M25 70L75 70" fill="#93dbe9" stroke="#3b4368" stroke-width="0"></path>
</svg>